<svg width="363" height="111" viewBox="0 0 363 111" fill="none" xmlns="http://www.w3.org/2000/svg">
<path fill-rule="evenodd" clip-rule="evenodd" d="M110.08 21.52C110.08 10.1209 100.839 0.880009 89.44 0.880009L20.64 0.880005C9.24085 0.880004 4.54598e-06 10.1208 4.54598e-06 21.52L0 90.32C-4.98273e-07 101.719 9.24084 110.96 20.64 110.96H110.08V21.52ZM74.7485 28.4C75.738 28.4 76.5401 29.2214 76.5401 30.2347V37.7453C76.5401 38.7586 75.738 39.58 74.7485 39.58H46.5118C45.5223 39.58 44.7201 40.4014 44.7201 41.4147V48.9253C44.7201 49.9386 45.5223 50.76 46.5118 50.76H54.4977C56.2703 50.76 56.9665 52.7703 55.4915 53.7772L45.518 60.8794C45.0195 61.2196 44.7201 61.7925 44.7201 62.4059V70.4253C44.7201 71.4386 45.5223 72.26 46.5118 72.26H74.7485C75.738 72.26 76.5401 73.0814 76.5401 74.0947V81.6053C76.5401 82.6186 75.738 83.44 74.7485 83.44H35.3318C34.3423 83.44 33.5401 82.6186 33.5401 81.6053V30.2347C33.5401 29.2214 34.3423 28.4 35.3318 28.4H74.7485ZM73.7546 52.3176C74.9453 51.5048 76.5401 52.3788 76.5401 53.8441V59.2453C76.5401 60.2586 75.738 61.08 74.7485 61.08H66.3326C64.5599 61.08 63.8638 58.7257 65.3388 57.7188L73.7546 52.3176Z" fill="#222025"/>
<path d="M142.76 59.1107C142.76 53.7167 142.76 48.2586 142.76 42.7363C142.76 37.2139 142.76 31.7558 142.76 26.3619C146.003 26.3619 149.278 26.3619 152.585 26.3619C155.892 26.3619 159.167 26.3619 162.409 26.3619C162.409 27.5819 162.409 28.8341 162.409 30.1183C162.409 31.4026 162.409 32.6548 162.409 33.8748C160.547 33.8748 158.669 33.8748 156.775 33.8748C154.912 33.8748 153.05 33.8748 151.188 33.8748C151.188 34.6775 151.188 35.4802 151.188 36.2828C151.188 37.0534 151.188 37.84 151.188 38.6427C152.89 38.6427 154.607 38.6427 156.341 38.6427C158.075 38.6427 159.777 38.6427 161.446 38.6427C161.446 39.8306 161.446 41.0346 161.446 42.2547C161.446 43.4747 161.446 44.6948 161.446 45.9148C159.777 45.9148 158.075 45.9148 156.341 45.9148C154.607 45.9148 152.89 45.9148 151.188 45.9148C151.188 46.8459 151.188 47.7931 151.188 48.7563C151.188 49.7195 151.188 50.6666 151.188 51.5977C153.05 51.5977 154.912 51.5977 156.775 51.5977C158.669 51.5977 160.547 51.5977 162.409 51.5977C162.409 52.8178 162.409 54.0699 162.409 55.3542C162.409 56.6384 162.409 57.8906 162.409 59.1107C159.167 59.1107 155.892 59.1107 152.585 59.1107C149.278 59.1107 146.003 59.1107 142.76 59.1107Z" fill="#222025"/>
<path d="M184.338 59.1107C184.338 58.8538 184.338 58.613 184.338 58.3883C184.338 58.1314 184.338 57.8906 184.338 57.6659C183.535 58.3401 182.62 58.8538 181.592 59.207C180.597 59.5923 179.522 59.7849 178.366 59.7849C176.728 59.7849 175.187 59.4799 173.742 58.8699C172.298 58.2277 171.013 57.3287 169.89 56.1729C168.798 54.985 167.931 53.5883 167.289 51.983C166.679 50.3776 166.374 48.5957 166.374 46.6372C166.374 44.6466 166.679 42.8486 167.289 41.2433C167.931 39.638 168.798 38.2734 169.89 37.1497C171.013 35.9939 172.298 35.1109 173.742 34.5009C175.187 33.8588 176.712 33.5377 178.318 33.5377C179.473 33.5377 180.565 33.7303 181.592 34.1156C182.62 34.4688 183.535 34.9664 184.338 35.6086C184.338 35.3517 184.338 35.1109 184.338 34.8862C184.338 34.6614 184.338 34.4367 184.338 34.2119C185.654 34.2119 186.986 34.2119 188.335 34.2119C189.683 34.2119 191 34.2119 192.284 34.2119C192.284 38.3216 192.284 42.4794 192.284 46.6854C192.284 50.8592 192.284 55.001 192.284 59.1107C191 59.1107 189.683 59.1107 188.335 59.1107C186.986 59.1107 185.654 59.1107 184.338 59.1107ZM179.425 52.7535C180.966 52.7535 182.202 52.1917 183.134 51.0679C184.065 49.9442 184.53 48.4673 184.53 46.6372C184.53 44.8071 184.065 43.3463 183.134 42.2547C182.202 41.1309 180.966 40.5691 179.425 40.5691C177.852 40.5691 176.6 41.1149 175.669 42.2065C174.77 43.2981 174.32 44.775 174.32 46.6372C174.32 48.4994 174.77 49.9924 175.669 51.1161C176.6 52.2077 177.852 52.7535 179.425 52.7535Z" fill="#222025"/>
<path d="M216.61 51.4051C216.61 53.3957 216.048 55.0331 214.925 56.3174C213.833 57.5695 212.356 58.4846 210.494 59.0625C208.632 59.6404 206.545 59.8812 204.233 59.7849C201.954 59.7207 199.626 59.3515 197.25 58.6772C197.25 57.4572 197.25 56.205 197.25 54.9207C197.25 53.6365 197.25 52.3843 197.25 51.1643C198.599 51.7743 199.947 52.2559 201.295 52.6091C202.644 52.9301 203.864 53.1228 204.956 53.187C206.047 53.2512 206.93 53.1709 207.604 52.9462C208.279 52.6893 208.616 52.2719 208.616 51.694C208.616 51.2445 208.327 50.8914 207.749 50.6345C207.203 50.3776 206.481 50.1529 205.582 49.9603C204.683 49.7355 203.72 49.4787 202.692 49.1897C201.697 48.8686 200.75 48.4352 199.851 47.8894C198.952 47.3115 198.213 46.557 197.635 45.6259C197.09 44.6627 196.817 43.4266 196.817 41.9175C196.817 40.1196 197.33 38.5945 198.358 37.3423C199.417 36.0581 200.83 35.0949 202.596 34.4527C204.362 33.7785 206.336 33.4414 208.519 33.4414C210.703 33.4414 212.934 33.8106 215.214 34.5491C215.214 35.7691 215.214 37.0213 215.214 38.3055C215.214 39.5898 215.214 40.842 215.214 42.062C213.416 41.1951 211.73 40.6172 210.157 40.3283C208.584 40.0393 207.315 40.0072 206.352 40.2319C205.389 40.4246 204.907 40.858 204.907 41.5323C204.907 41.9818 205.18 42.3349 205.726 42.5918C206.304 42.8165 207.027 43.0252 207.893 43.2179C208.792 43.4105 209.74 43.6674 210.735 43.9884C211.762 44.3095 212.709 44.759 213.576 45.3369C214.475 45.8827 215.198 46.6533 215.743 47.6486C216.321 48.6118 216.61 49.8639 216.61 51.4051Z" fill="#222025"/>
<path d="M222.756 66.8163C223.398 65.1146 224.056 63.3969 224.731 61.6631C225.437 59.9615 226.111 58.2759 226.753 56.6063C225.244 52.9141 223.703 49.1897 222.13 45.4332C220.589 41.6446 219.064 37.9042 217.555 34.2119C218.967 34.2119 220.38 34.2119 221.793 34.2119C223.206 34.2119 224.602 34.2119 225.983 34.2119C226.818 36.2668 227.652 38.3537 228.487 40.4727C229.354 42.5918 230.205 44.6948 231.04 46.7817C231.81 44.6948 232.597 42.5918 233.399 40.4727C234.202 38.3537 234.989 36.2668 235.759 34.2119C237.14 34.2119 238.52 34.2119 239.901 34.2119C241.282 34.2119 242.662 34.2119 244.043 34.2119C241.892 39.5738 239.724 45.0158 237.541 50.5382C235.39 56.0284 233.239 61.4544 231.088 66.8163C229.707 66.8163 228.31 66.8163 226.898 66.8163C225.517 66.8163 224.137 66.8163 222.756 66.8163Z" fill="#222025"/>
<path d="M246.934 59.1107C246.934 53.7167 246.934 48.2586 246.934 42.7363C246.934 37.2139 246.934 31.7558 246.934 26.3619C248.347 26.3619 249.76 26.3619 251.172 26.3619C252.617 26.3619 254.03 26.3619 255.41 26.3619C257.112 29.412 258.83 32.4942 260.564 35.6086C262.329 38.7229 264.063 41.8052 265.765 44.8553C265.765 41.8052 265.765 38.7229 265.765 35.6086C265.765 32.4942 265.765 29.412 265.765 26.3619C267.145 26.3619 268.526 26.3619 269.907 26.3619C271.287 26.3619 272.668 26.3619 274.048 26.3619C274.048 31.7558 274.048 37.2139 274.048 42.7363C274.048 48.2586 274.048 53.7167 274.048 59.1107C272.668 59.1107 271.255 59.1107 269.81 59.1107C268.398 59.1107 266.985 59.1107 265.572 59.1107C263.87 56.0605 262.137 52.9783 260.371 49.8639C258.637 46.7496 256.919 43.6674 255.218 40.6172C255.218 43.6674 255.218 46.7496 255.218 49.8639C255.218 52.9783 255.218 56.0605 255.218 59.1107C253.837 59.1107 252.457 59.1107 251.076 59.1107C249.695 59.1107 248.315 59.1107 246.934 59.1107Z" fill="#222025"/>
<path d="M291.644 59.8812C289.782 59.8812 288.048 59.5602 286.443 58.918C284.837 58.2438 283.441 57.3127 282.253 56.1247C281.065 54.9047 280.134 53.492 279.46 51.8867C278.817 50.2813 278.496 48.5315 278.496 46.6372C278.496 44.7429 278.817 42.9931 279.46 41.3878C280.134 39.7824 281.065 38.3858 282.253 37.1979C283.441 36.0099 284.837 35.0949 286.443 34.4527C288.048 33.7785 289.782 33.4414 291.644 33.4414C293.538 33.4414 295.272 33.7785 296.845 34.4527C298.451 35.0949 299.847 36.0099 301.035 37.1979C302.223 38.3858 303.138 39.7824 303.78 41.3878C304.455 42.9931 304.792 44.7429 304.792 46.6372C304.792 48.5315 304.455 50.2813 303.78 51.8867C303.138 53.492 302.223 54.9047 301.035 56.1247C299.847 57.3127 298.451 58.2438 296.845 58.918C295.272 59.5602 293.538 59.8812 291.644 59.8812ZM291.644 52.7054C293.217 52.7054 294.469 52.1435 295.4 51.0198C296.364 49.8639 296.845 48.4031 296.845 46.6372C296.845 44.8392 296.364 43.3944 295.4 42.3028C294.469 41.1791 293.217 40.6172 291.644 40.6172C290.071 40.6172 288.803 41.1791 287.839 42.3028C286.908 43.3944 286.443 44.8392 286.443 46.6372C286.443 48.4031 286.908 49.8639 287.839 51.0198C288.803 52.1435 290.071 52.7054 291.644 52.7054Z" fill="#222025"/>
<path d="M325.337 59.1107C325.337 58.8538 325.337 58.613 325.337 58.3883C325.337 58.1314 325.337 57.8906 325.337 57.6659C324.535 58.3401 323.62 58.8538 322.592 59.207C321.597 59.5923 320.521 59.7849 319.365 59.7849C317.728 59.7849 316.187 59.4638 314.742 58.8217C313.297 58.1796 312.013 57.2806 310.889 56.1247C309.798 54.9368 308.931 53.5402 308.289 51.9348C307.679 50.3295 307.374 48.5636 307.374 46.6372C307.374 44.6787 307.679 42.8968 308.289 41.2915C308.931 39.6861 309.798 38.3055 310.889 37.1497C312.013 35.9939 313.297 35.1109 314.742 34.5009C316.187 33.8588 317.712 33.5377 319.317 33.5377C320.473 33.5377 321.565 33.7303 322.592 34.1156C323.62 34.4688 324.535 34.9664 325.337 35.6086C325.337 33.6822 325.337 31.7397 325.337 29.7812C325.337 27.8227 325.337 25.8803 325.337 23.9539C326.654 23.9539 327.986 23.9539 329.334 23.9539C330.683 23.9539 331.999 23.9539 333.284 23.9539C333.284 29.7652 333.284 35.6246 333.284 41.5323C333.284 47.4399 333.284 53.2994 333.284 59.1107C331.999 59.1107 330.683 59.1107 329.334 59.1107C327.986 59.1107 326.654 59.1107 325.337 59.1107ZM320.425 52.7535C321.966 52.7535 323.202 52.1917 324.133 51.0679C325.064 49.9442 325.53 48.4673 325.53 46.6372C325.53 44.8071 325.064 43.3463 324.133 42.2547C323.202 41.1309 321.966 40.5691 320.425 40.5691C318.852 40.5691 317.6 41.1149 316.668 42.2065C315.769 43.2981 315.32 44.775 315.32 46.6372C315.32 48.4994 315.769 49.9924 316.668 51.1161C317.6 52.2077 318.852 52.7535 320.425 52.7535Z" fill="#222025"/>
<path d="M360.253 57.9548C358.038 58.8859 355.839 59.4638 353.655 59.6886C351.472 59.9133 349.401 59.7849 347.443 59.3033C345.516 58.8538 343.799 58.0672 342.29 56.9435C340.781 55.8197 339.593 54.391 338.726 52.6572C337.891 50.9235 337.474 48.9168 337.474 46.6372C337.474 44.7429 337.779 43.0092 338.389 41.4359C339.031 39.8306 339.93 38.434 341.086 37.246C342.241 36.026 343.606 35.0949 345.179 34.4527C346.752 33.7785 348.47 33.4414 350.332 33.4414C352.002 33.4414 353.511 33.7143 354.859 34.2601C356.208 34.8059 357.38 35.5765 358.375 36.5718C359.37 37.535 360.173 38.6908 360.783 40.0393C361.393 41.3878 361.778 42.8647 361.939 44.47C362.099 46.0754 362.003 47.777 361.65 49.575C359.017 49.575 356.368 49.575 353.703 49.575C351.039 49.575 348.39 49.575 345.757 49.575C346.367 50.795 347.378 51.6619 348.791 52.1756C350.236 52.6893 351.938 52.8499 353.896 52.6572C355.887 52.4646 358.006 51.9509 360.253 51.1161C360.253 52.2398 360.253 53.3796 360.253 54.5355C360.253 55.6913 360.253 56.8311 360.253 57.9548ZM350.14 40.5691C349.209 40.5691 348.342 40.8259 347.539 41.3396C346.768 41.8533 346.174 42.6399 345.757 43.6995C347.202 43.6995 348.647 43.6995 350.091 43.6995C351.568 43.6995 353.029 43.6995 354.474 43.6995C354.089 42.6078 353.511 41.8212 352.74 41.3396C352.002 40.8259 351.135 40.5691 350.14 40.5691Z" fill="#222025"/>
<path d="M152.409 79.9019V82.6075C152.409 84.2472 151.999 85.5401 151.179 86.4861C150.36 87.4195 149.161 87.8862 147.585 87.8862C145.995 87.8862 144.791 87.4195 143.971 86.4861C143.164 85.5401 142.76 84.2472 142.76 82.6075V79.9019C142.76 78.2622 143.164 76.9756 143.971 76.0422C144.791 75.1089 145.995 74.6422 147.585 74.6422C149.161 74.6422 150.36 75.1089 151.179 76.0422C151.999 76.9756 152.409 78.2622 152.409 79.9019ZM150.082 79.9019C150.082 78.8676 149.88 78.0919 149.477 77.5748C149.073 77.045 148.442 76.7801 147.585 76.7801C146.727 76.7801 146.096 77.045 145.693 77.5748C145.289 78.0919 145.087 78.8676 145.087 79.9019V82.6075C145.087 83.6418 145.289 84.4238 145.693 84.9536C146.096 85.4833 146.727 85.7482 147.585 85.7482C148.442 85.7482 149.073 85.4833 149.477 84.9536C149.88 84.4238 150.082 83.6418 150.082 82.6075V79.9019Z" fill="#222025"/>
<path d="M159.819 79.9398C159.504 79.9398 159.144 80.0154 158.741 80.1668C158.337 80.3182 157.858 80.6146 157.303 81.056V87.697H155.127V78.1045H157.189V79.3911C157.782 78.8739 158.343 78.5018 158.873 78.2748C159.403 78.0352 159.939 77.9153 160.481 77.9153C161.402 77.9153 162.102 78.2117 162.582 78.8046C163.061 79.3848 163.3 80.2046 163.3 81.2642V87.697H161.125V81.529C161.125 80.4695 160.69 79.9398 159.819 79.9398Z" fill="#222025"/>
<path d="M173.46 87.1483C172.804 87.4132 172.186 87.6024 171.606 87.7159C171.026 87.8294 170.477 87.8862 169.96 87.8862C168.535 87.8862 167.456 87.4825 166.725 86.6753C165.993 85.868 165.627 84.7959 165.627 83.4589V82.3237C165.627 81.4281 165.791 80.6524 166.119 79.9965C166.447 79.3406 166.914 78.8298 167.519 78.464C168.125 78.0982 168.837 77.9153 169.657 77.9153C170.326 77.9153 170.95 78.0541 171.53 78.3316C172.123 78.5964 172.603 79.019 172.968 79.5992C173.347 80.1668 173.536 80.8984 173.536 81.7939C173.536 82.0588 173.517 82.3426 173.479 82.6453C173.441 82.9354 173.378 83.2445 173.29 83.5724H167.727C167.753 84.3544 167.948 84.941 168.314 85.332C168.68 85.723 169.266 85.9185 170.074 85.9185C170.502 85.9185 170.944 85.868 171.398 85.7671C171.865 85.6662 172.344 85.5149 172.836 85.313L173.46 87.1483ZM169.657 79.7506C169.077 79.7506 168.623 79.9398 168.295 80.3182C167.98 80.684 167.797 81.2137 167.746 81.9074H171.379C171.392 81.8444 171.398 81.7876 171.398 81.7372C171.398 81.6741 171.398 81.6173 171.398 81.5669C171.398 80.9614 171.228 80.5074 170.887 80.2046C170.547 79.9019 170.137 79.7506 169.657 79.7506Z" fill="#222025"/>
<path d="M175.494 82.6832V80.7912H181.246V82.6832H175.494Z" fill="#222025"/>
<path d="M185.716 82.6075C185.716 83.5283 185.918 84.2851 186.322 84.8779C186.725 85.4581 187.388 85.7482 188.308 85.7482C188.687 85.7482 189.078 85.6978 189.481 85.5968C189.898 85.4959 190.408 85.3257 191.014 85.086L191.714 87.0537C191.033 87.3564 190.402 87.5708 189.822 87.697C189.254 87.8231 188.706 87.8862 188.176 87.8862C187.116 87.8862 186.227 87.6591 185.508 87.205C184.802 86.751 184.272 86.1266 183.919 85.332C183.566 84.5373 183.389 83.6292 183.389 82.6075V79.9019C183.389 78.8802 183.566 77.9721 183.919 77.1774C184.272 76.3828 184.802 75.7648 185.508 75.3233C186.227 74.8692 187.116 74.6422 188.176 74.6422C188.693 74.6422 189.229 74.7052 189.784 74.8314C190.339 74.9449 190.944 75.1467 191.6 75.4368L190.9 77.4423C190.32 77.2027 189.834 77.0324 189.443 76.9315C189.052 76.8306 188.674 76.7801 188.308 76.7801C187.388 76.7801 186.725 77.0702 186.322 77.6504C185.918 78.2307 185.716 78.9812 185.716 79.9019V82.6075Z" fill="#222025"/>
<path d="M193.742 84.9914V73.6962H195.918V84.9914C195.918 85.1806 195.962 85.3635 196.05 85.5401C196.151 85.7041 196.34 85.786 196.618 85.786H196.92V87.7916H196.391C195.672 87.7916 195.123 87.6528 194.744 87.3753C194.366 87.0978 194.101 86.7447 193.95 86.3158C193.811 85.887 193.742 85.4455 193.742 84.9914Z" fill="#222025"/>
<path d="M201.26 76.2882H198.971V74.0367H201.26V76.2882ZM201.203 87.697H199.027V78.1045H201.203V87.697Z" fill="#222025"/>
<path d="M205.866 82.3426V83.4589C205.866 84.2661 206.011 84.8716 206.301 85.2752C206.591 85.6788 207.058 85.8806 207.701 85.8806C208.016 85.8806 208.369 85.8428 208.761 85.7671C209.164 85.6788 209.599 85.5464 210.066 85.3698L210.69 87.205C210.123 87.4321 209.587 87.6024 209.082 87.7159C208.578 87.8294 208.079 87.8862 207.587 87.8862C206.326 87.8862 205.361 87.4825 204.693 86.6753C204.024 85.868 203.69 84.7959 203.69 83.4589V82.3426C203.69 80.993 204.024 79.9208 204.693 79.1262C205.361 78.319 206.326 77.9153 207.587 77.9153C208.067 77.9153 208.552 77.9721 209.044 78.0856C209.536 78.1991 210.053 78.3631 210.596 78.5775L209.971 80.4506C209.063 80.0974 208.306 79.9208 207.701 79.9208C207.058 79.9208 206.591 80.1227 206.301 80.5263C206.011 80.9173 205.866 81.5227 205.866 82.3426Z" fill="#222025"/>
<path d="M218.414 87.697L216.049 83.7048C215.671 84.0832 215.274 84.4616 214.857 84.84V87.697H212.682V73.6962H214.857V82.4372C215.576 81.7056 216.194 81.0056 216.711 80.3371C217.241 79.656 217.727 78.9118 218.168 78.1045H220.666C220.25 78.8613 219.795 79.5803 219.304 80.2614C218.812 80.9425 218.269 81.63 217.676 82.3237L221.044 87.697H218.414Z" fill="#222025"/>
<path d="M226.823 87.697V74.8314H228.904C229.9 76.1305 230.846 77.5054 231.742 78.9559C232.638 80.3938 233.451 81.8759 234.183 83.4021L234.012 79.5614V74.8314H236.188V87.697H234.107C233.3 86.1077 232.461 84.5121 231.591 82.9102C230.733 81.2957 229.818 79.7758 228.847 78.3505L228.999 82.7778V87.697H226.823Z" fill="#222025"/>
<path d="M247.306 82.3237V83.4589C247.306 84.7959 246.94 85.868 246.209 86.6753C245.477 87.4825 244.443 87.8862 243.106 87.8862C241.769 87.8862 240.734 87.4825 240.003 86.6753C239.271 85.868 238.905 84.7959 238.905 83.4589V82.3237C238.905 80.9867 239.265 79.9208 239.984 79.1262C240.715 78.319 241.756 77.9153 243.106 77.9153C244.455 77.9153 245.49 78.319 246.209 79.1262C246.94 79.9208 247.306 80.9867 247.306 82.3237ZM245.073 82.3237C245.073 81.5543 244.903 80.9551 244.562 80.5263C244.222 80.0848 243.736 79.8641 243.106 79.8641C242.475 79.8641 241.989 80.0848 241.649 80.5263C241.308 80.9551 241.138 81.5543 241.138 82.3237V83.4589C241.138 84.2283 241.308 84.8337 241.649 85.2752C241.989 85.7167 242.475 85.9374 243.106 85.9374C243.736 85.9374 244.222 85.7167 244.562 85.2752C244.903 84.8337 245.073 84.2283 245.073 83.4589V82.3237Z" fill="#222025"/>
<path d="M255.365 87.697V86.3915C254.785 86.9717 254.28 87.369 253.851 87.5834C253.435 87.7853 253 87.8862 252.546 87.8862C251.511 87.8862 250.704 87.4952 250.124 86.7131C249.556 85.9311 249.273 84.8337 249.273 83.421V82.3994C249.273 81.0245 249.619 79.9335 250.313 79.1262C251.007 78.319 252.01 77.9153 253.321 77.9153C253.649 77.9153 253.971 77.9469 254.286 78.0099C254.614 78.073 254.936 78.1613 255.251 78.2748V73.6962H257.427V87.697H255.365ZM251.505 83.421C251.505 84.2661 251.644 84.8842 251.921 85.2752C252.211 85.6662 252.615 85.8617 253.132 85.8617C253.422 85.8617 253.731 85.7797 254.059 85.6158C254.387 85.4392 254.785 85.1112 255.251 84.6319V80.2425C254.633 79.9902 254.066 79.8641 253.548 79.8641C252.817 79.8641 252.293 80.0911 251.978 80.5452C251.663 80.9993 251.505 81.6173 251.505 82.3994V83.421Z" fill="#222025"/>
<path d="M267.709 87.1483C267.053 87.4132 266.435 87.6024 265.855 87.7159C265.275 87.8294 264.726 87.8862 264.209 87.8862C262.784 87.8862 261.705 87.4825 260.974 86.6753C260.242 85.868 259.876 84.7959 259.876 83.4589V82.3237C259.876 81.4281 260.04 80.6524 260.368 79.9965C260.696 79.3406 261.163 78.8298 261.768 78.464C262.374 78.0982 263.086 77.9153 263.906 77.9153C264.575 77.9153 265.199 78.0541 265.779 78.3316C266.372 78.5964 266.851 79.019 267.217 79.5992C267.596 80.1668 267.785 80.8984 267.785 81.7939C267.785 82.0588 267.766 82.3426 267.728 82.6453C267.69 82.9354 267.627 83.2445 267.539 83.5724H261.976C262.002 84.3544 262.197 84.941 262.563 85.332C262.929 85.723 263.515 85.9185 264.322 85.9185C264.751 85.9185 265.193 85.868 265.647 85.7671C266.114 85.6662 266.593 85.5149 267.085 85.313L267.709 87.1483ZM263.906 79.7506C263.326 79.7506 262.872 79.9398 262.544 80.3182C262.229 80.684 262.046 81.2137 261.995 81.9074H265.628C265.641 81.8444 265.647 81.7876 265.647 81.7372C265.647 81.6741 265.647 81.6173 265.647 81.5669C265.647 80.9614 265.477 80.5074 265.136 80.2046C264.795 79.9019 264.386 79.7506 263.906 79.7506Z" fill="#222025"/>
<path d="M272.978 85.9942C273.445 85.9942 273.829 85.9185 274.132 85.7671C274.435 85.6032 274.586 85.3635 274.586 85.0482C274.586 84.7707 274.485 84.5562 274.284 84.4049C274.094 84.2409 273.748 84.0959 273.243 83.9697L272.165 83.6859C271.332 83.4715 270.714 83.112 270.31 82.6075C269.919 82.103 269.724 81.5038 269.724 80.8101C269.724 79.9902 270.008 79.3028 270.575 78.7478C271.143 78.1928 272.019 77.9153 273.205 77.9153C273.684 77.9153 274.189 77.9721 274.719 78.0856C275.248 78.1991 275.803 78.382 276.384 78.6343L275.759 80.4884C275.23 80.2362 274.75 80.0596 274.321 79.9587C273.893 79.8578 273.514 79.8073 273.186 79.8073C272.291 79.8073 271.843 80.11 271.843 80.7155C271.843 80.9551 271.919 81.1443 272.07 81.2831C272.234 81.4218 272.53 81.548 272.959 81.6615L274.038 81.9453C274.958 82.1849 275.627 82.5507 276.043 83.0426C276.472 83.5346 276.686 84.1526 276.686 84.8968C276.686 85.7797 276.384 86.4987 275.778 87.0537C275.185 87.6087 274.246 87.8862 272.959 87.8862C271.862 87.8862 270.708 87.6339 269.497 87.1294L270.083 85.332C270.676 85.5716 271.212 85.7419 271.692 85.8428C272.171 85.9437 272.6 85.9942 272.978 85.9942Z" fill="#222025"/>
<path d="M289.576 82.7588H285.262V87.697H282.992V74.8314H290.143V77.0072H285.262V80.583H289.576V82.7588Z" fill="#222025"/>
<path d="M299.742 82.3237V83.4589C299.742 84.7959 299.377 85.868 298.645 86.6753C297.913 87.4825 296.879 87.8862 295.542 87.8862C294.205 87.8862 293.171 87.4825 292.439 86.6753C291.708 85.868 291.342 84.7959 291.342 83.4589V82.3237C291.342 80.9867 291.701 79.9208 292.42 79.1262C293.152 78.319 294.192 77.9153 295.542 77.9153C296.892 77.9153 297.926 78.319 298.645 79.1262C299.377 79.9208 299.742 80.9867 299.742 82.3237ZM297.51 82.3237C297.51 81.5543 297.34 80.9551 296.999 80.5263C296.658 80.0848 296.173 79.8641 295.542 79.8641C294.911 79.8641 294.426 80.0848 294.085 80.5263C293.745 80.9551 293.574 81.5543 293.574 82.3237V83.4589C293.574 84.2283 293.745 84.8337 294.085 85.2752C294.426 85.7167 294.911 85.9374 295.542 85.9374C296.173 85.9374 296.658 85.7167 296.999 85.2752C297.34 84.8337 297.51 84.2283 297.51 83.4589V82.3237Z" fill="#222025"/>
<path d="M307.593 80.0911C307 80.0911 306.433 80.1857 305.89 80.3749C305.361 80.5515 304.85 80.8416 304.358 81.2452V87.697H302.182V78.1045H304.244V79.5803C304.888 78.9748 305.461 78.546 305.966 78.2937C306.471 78.0415 307.013 77.9153 307.593 77.9153V80.0911Z" fill="#222025"/>
<path d="M320.419 87.697L319.625 85.1806H315.216L314.422 87.697H312.17L316.465 74.8314H318.47L322.784 87.697H320.419ZM316.446 81.2452L315.86 83.0994H318.962L318.376 81.2452L317.43 77.991L316.446 81.2452Z" fill="#222025"/>
<path d="M324.593 84.9914V73.6962H326.769V84.9914C326.769 85.1806 326.813 85.3635 326.901 85.5401C327.002 85.7041 327.191 85.786 327.469 85.786H327.771V87.7916H327.242C326.523 87.7916 325.974 87.6528 325.596 87.3753C325.217 87.0978 324.952 86.7447 324.801 86.3158C324.662 85.887 324.593 85.4455 324.593 84.9914Z" fill="#222025"/>
<path d="M329.822 84.9914V73.6962H331.997V84.9914C331.997 85.1806 332.042 85.3635 332.13 85.5401C332.231 85.7041 332.42 85.786 332.697 85.786H333V87.7916H332.47C331.751 87.7916 331.203 87.6528 330.824 87.3753C330.446 87.0978 330.181 86.7447 330.03 86.3158C329.891 85.887 329.822 85.4455 329.822 84.9914Z" fill="#222025"/>
</svg>
